<mxfile host="app.diagrams.net" modified="2020-03-18T22:26:32.606Z" agent="Mozilla/5.0 (Windows NT 10.0; Win64; x64) AppleWebKit/537.36 (KHTML, like Gecko) Chrome/80.0.3987.132 Safari/537.36" etag="2IR9fZxho_Cd9BcudZxe" version="12.8.8" type="github">
  <diagram id="jFGP1e5pJGSL-6GBCnBk" name="Page-1">
    <mxGraphModel dx="1695" dy="433" grid="1" gridSize="10" guides="1" tooltips="1" connect="1" arrows="1" fold="1" page="1" pageScale="1" pageWidth="827" pageHeight="1169" math="0" shadow="0">
      <root>
        <mxCell id="0" />
        <mxCell id="1" parent="0" />
        <mxCell id="rICSejMsTbXTkALGGHpn-1" value="Aluno" style="swimlane;fontStyle=1;align=center;verticalAlign=top;childLayout=stackLayout;horizontal=1;startSize=26;horizontalStack=0;resizeParent=1;resizeParentMax=0;resizeLast=0;collapsible=1;marginBottom=0;" parent="1" vertex="1">
          <mxGeometry x="260" y="40" width="350" height="130" as="geometry" />
        </mxCell>
        <mxCell id="rICSejMsTbXTkALGGHpn-2" value="- nome: String&#xa;- sobrenome: String&#xa;- codigoAluno: Integer&#xa;" style="text;strokeColor=none;fillColor=none;align=left;verticalAlign=top;spacingLeft=4;spacingRight=4;overflow=hidden;rotatable=0;points=[[0,0.5],[1,0.5]];portConstraint=eastwest;" parent="rICSejMsTbXTkALGGHpn-1" vertex="1">
          <mxGeometry y="26" width="350" height="54" as="geometry" />
        </mxCell>
        <mxCell id="rICSejMsTbXTkALGGHpn-3" value="" style="line;strokeWidth=1;fillColor=none;align=left;verticalAlign=middle;spacingTop=-1;spacingLeft=3;spacingRight=3;rotatable=0;labelPosition=right;points=[];portConstraint=eastwest;" parent="rICSejMsTbXTkALGGHpn-1" vertex="1">
          <mxGeometry y="80" width="350" height="8" as="geometry" />
        </mxCell>
        <mxCell id="rICSejMsTbXTkALGGHpn-4" value="+ verificarAluno(Aluno aluno): void&#xa;+ consultarMatricula(cursos: List&lt;Curso&gt;): Void" style="text;strokeColor=none;fillColor=none;align=left;verticalAlign=top;spacingLeft=4;spacingRight=4;overflow=hidden;rotatable=0;points=[[0,0.5],[1,0.5]];portConstraint=eastwest;" parent="rICSejMsTbXTkALGGHpn-1" vertex="1">
          <mxGeometry y="88" width="350" height="42" as="geometry" />
        </mxCell>
        <mxCell id="rICSejMsTbXTkALGGHpn-12" value="1" style="endArrow=open;html=1;endSize=12;startArrow=diamondThin;startSize=14;startFill=0;edgeStyle=orthogonalEdgeStyle;align=left;verticalAlign=bottom;entryX=0;entryY=0.5;entryDx=0;entryDy=0;exitX=0.558;exitY=-0.011;exitDx=0;exitDy=0;exitPerimeter=0;" parent="1" source="rICSejMsTbXTkALGGHpn-5" target="rICSejMsTbXTkALGGHpn-2" edge="1">
          <mxGeometry x="0.4866" y="-133" relative="1" as="geometry">
            <mxPoint x="200" y="160" as="sourcePoint" />
            <mxPoint x="260" y="110" as="targetPoint" />
            <mxPoint as="offset" />
          </mxGeometry>
        </mxCell>
        <mxCell id="rICSejMsTbXTkALGGHpn-5" value="Curso" style="swimlane;fontStyle=1;align=center;verticalAlign=top;childLayout=stackLayout;horizontal=1;startSize=26;horizontalStack=0;resizeParent=1;resizeParentMax=0;resizeLast=0;collapsible=1;marginBottom=0;" parent="1" vertex="1">
          <mxGeometry x="20" y="230" width="320" height="330" as="geometry" />
        </mxCell>
        <mxCell id="rICSejMsTbXTkALGGHpn-6" value="- nome: String&#xa;- codigoCurso: Integer&#xa;- professorAdjunto: ProfessorAdjunto&#xa;- professorTitular: ProfessorTitular&#xa;- qtdMaxALunos: int&#xa;- alunos: List&lt;Aluno&gt;&#xa;&#xa;" style="text;strokeColor=none;fillColor=none;align=left;verticalAlign=top;spacingLeft=4;spacingRight=4;overflow=hidden;rotatable=0;points=[[0,0.5],[1,0.5]];portConstraint=eastwest;" parent="rICSejMsTbXTkALGGHpn-5" vertex="1">
          <mxGeometry y="26" width="320" height="94" as="geometry" />
        </mxCell>
        <mxCell id="rICSejMsTbXTkALGGHpn-7" value="" style="line;strokeWidth=1;fillColor=none;align=left;verticalAlign=middle;spacingTop=-1;spacingLeft=3;spacingRight=3;rotatable=0;labelPosition=right;points=[];portConstraint=eastwest;" parent="rICSejMsTbXTkALGGHpn-5" vertex="1">
          <mxGeometry y="120" width="320" height="8" as="geometry" />
        </mxCell>
        <mxCell id="rICSejMsTbXTkALGGHpn-8" value="+ getNome():String&#xa;+ setNome(nome: String): void&#xa;+ getProfessorAdjunto():String&#xa;+ setProfessorAdjunto(prof: ProfessorAdjunto): void&#xa;+ getProfessorTitular(): String&#xa;+ setProfessorTiitular(prof: ProfessorTitular): void&#xa;+ getCodigoCurso(): Int &#xa;+ setCodigoCurso(codigo: int): Int&#xa;+ getQtdMaxAluno(): Int&#xa;+ setQtdMaxAluno(qtd: Int): void&#xa;+ verificarCurso(Curso curso): void&#xa;+ adicionarUmAluno(aluno: Aluno): void&#xa;+ excluirUmAluno(codigo: int): void&#xa;" style="text;strokeColor=none;fillColor=none;align=left;verticalAlign=top;spacingLeft=4;spacingRight=4;overflow=hidden;rotatable=0;points=[[0,0.5],[1,0.5]];portConstraint=eastwest;" parent="rICSejMsTbXTkALGGHpn-5" vertex="1">
          <mxGeometry y="128" width="320" height="202" as="geometry" />
        </mxCell>
        <mxCell id="rICSejMsTbXTkALGGHpn-42" value="1" style="endArrow=open;html=1;endSize=12;startArrow=diamondThin;startSize=14;startFill=0;edgeStyle=orthogonalEdgeStyle;align=left;verticalAlign=bottom;entryX=1;entryY=0.5;entryDx=0;entryDy=0;" parent="1" target="rICSejMsTbXTkALGGHpn-31" edge="1">
          <mxGeometry x="-0.8932" y="15" relative="1" as="geometry">
            <mxPoint x="22" y="375" as="sourcePoint" />
            <mxPoint x="-230" y="620" as="targetPoint" />
            <Array as="points">
              <mxPoint x="22" y="375" />
            </Array>
            <mxPoint as="offset" />
          </mxGeometry>
        </mxCell>
        <mxCell id="rICSejMsTbXTkALGGHpn-47" value="1" style="endArrow=open;html=1;endSize=12;startArrow=diamondThin;startSize=14;startFill=0;edgeStyle=orthogonalEdgeStyle;align=left;verticalAlign=bottom;entryX=1.013;entryY=0.164;entryDx=0;entryDy=0;entryPerimeter=0;exitX=0.158;exitY=-0.008;exitDx=0;exitDy=0;exitPerimeter=0;" parent="1" source="rICSejMsTbXTkALGGHpn-5" target="rICSejMsTbXTkALGGHpn-19" edge="1">
          <mxGeometry x="-0.9446" y="11" relative="1" as="geometry">
            <mxPoint x="70" y="220" as="sourcePoint" />
            <mxPoint x="560" y="520" as="targetPoint" />
            <Array as="points">
              <mxPoint x="71" y="78" />
            </Array>
            <mxPoint as="offset" />
          </mxGeometry>
        </mxCell>
        <mxCell id="rICSejMsTbXTkALGGHpn-14" value="Professor " style="swimlane;fontStyle=1;align=center;verticalAlign=top;childLayout=stackLayout;horizontal=1;startSize=26;horizontalStack=0;resizeParent=1;resizeParentMax=0;resizeLast=0;collapsible=1;marginBottom=0;" parent="1" vertex="1">
          <mxGeometry x="-270" y="120" width="280" height="240" as="geometry" />
        </mxCell>
        <mxCell id="rICSejMsTbXTkALGGHpn-15" value="- nome: String&#xa;- sobrenome: String&#xa;- tempoCasa: Int&#xa;- codigoProfessor: int" style="text;strokeColor=none;fillColor=none;align=left;verticalAlign=top;spacingLeft=4;spacingRight=4;overflow=hidden;rotatable=0;points=[[0,0.5],[1,0.5]];portConstraint=eastwest;" parent="rICSejMsTbXTkALGGHpn-14" vertex="1">
          <mxGeometry y="26" width="280" height="64" as="geometry" />
        </mxCell>
        <mxCell id="rICSejMsTbXTkALGGHpn-16" value="" style="line;strokeWidth=1;fillColor=none;align=left;verticalAlign=middle;spacingTop=-1;spacingLeft=3;spacingRight=3;rotatable=0;labelPosition=right;points=[];portConstraint=eastwest;" parent="rICSejMsTbXTkALGGHpn-14" vertex="1">
          <mxGeometry y="90" width="280" height="8" as="geometry" />
        </mxCell>
        <mxCell id="rICSejMsTbXTkALGGHpn-17" value="+ getNome(): String&#xa;+ setNome(nome: String): void&#xa;+ getSobrenome(): String&#xa;+ setSobrenome(sobrenome: Str): void&#xa;+ getTempoCasa(): Int&#xa;+ setTempoCasa(tempoCasa: int): void&#xa;+ getCodigoProfessor(): Int&#xa;+ setCodigoProfessor(codigo:int): Int&#xa;+ verificarProfessor(Professor professor): Bool&#xa;&#xa;&#xa;" style="text;strokeColor=none;fillColor=none;align=left;verticalAlign=top;spacingLeft=4;spacingRight=4;overflow=hidden;rotatable=0;points=[[0,0.5],[1,0.5]];portConstraint=eastwest;fontSize=10;" parent="rICSejMsTbXTkALGGHpn-14" vertex="1">
          <mxGeometry y="98" width="280" height="142" as="geometry" />
        </mxCell>
        <mxCell id="rICSejMsTbXTkALGGHpn-28" value="ProfessorTitular" style="swimlane;fontStyle=1;align=center;verticalAlign=top;childLayout=stackLayout;horizontal=1;startSize=26;horizontalStack=0;resizeParent=1;resizeParentMax=0;resizeLast=0;collapsible=1;marginBottom=0;" parent="1" vertex="1">
          <mxGeometry x="-640" y="290" width="250" height="110" as="geometry" />
        </mxCell>
        <mxCell id="rICSejMsTbXTkALGGHpn-29" value="- especialidade: String" style="text;strokeColor=none;fillColor=none;align=left;verticalAlign=top;spacingLeft=4;spacingRight=4;overflow=hidden;rotatable=0;points=[[0,0.5],[1,0.5]];portConstraint=eastwest;" parent="rICSejMsTbXTkALGGHpn-28" vertex="1">
          <mxGeometry y="26" width="250" height="26" as="geometry" />
        </mxCell>
        <mxCell id="rICSejMsTbXTkALGGHpn-30" value="" style="line;strokeWidth=1;fillColor=none;align=left;verticalAlign=middle;spacingTop=-1;spacingLeft=3;spacingRight=3;rotatable=0;labelPosition=right;points=[];portConstraint=eastwest;" parent="rICSejMsTbXTkALGGHpn-28" vertex="1">
          <mxGeometry y="52" width="250" height="8" as="geometry" />
        </mxCell>
        <mxCell id="rICSejMsTbXTkALGGHpn-31" value="+ getEspecialidade(): String&#xa;+ setEspecialidade(String especialidade): Void" style="text;strokeColor=none;fillColor=none;align=left;verticalAlign=top;spacingLeft=4;spacingRight=4;overflow=hidden;rotatable=0;points=[[0,0.5],[1,0.5]];portConstraint=eastwest;fontSize=10;" parent="rICSejMsTbXTkALGGHpn-28" vertex="1">
          <mxGeometry y="60" width="250" height="50" as="geometry" />
        </mxCell>
        <mxCell id="rICSejMsTbXTkALGGHpn-19" value="ProfessorAdjunto" style="swimlane;fontStyle=1;align=center;verticalAlign=top;childLayout=stackLayout;horizontal=1;startSize=26;horizontalStack=0;resizeParent=1;resizeParentMax=0;resizeLast=0;collapsible=1;marginBottom=0;" parent="1" vertex="1">
          <mxGeometry x="-650" y="60" width="240" height="110" as="geometry" />
        </mxCell>
        <mxCell id="rICSejMsTbXTkALGGHpn-20" value="- qtdHorasMonitoria: Int" style="text;strokeColor=none;fillColor=none;align=left;verticalAlign=top;spacingLeft=4;spacingRight=4;overflow=hidden;rotatable=0;points=[[0,0.5],[1,0.5]];portConstraint=eastwest;" parent="rICSejMsTbXTkALGGHpn-19" vertex="1">
          <mxGeometry y="26" width="240" height="26" as="geometry" />
        </mxCell>
        <mxCell id="rICSejMsTbXTkALGGHpn-21" value="" style="line;strokeWidth=1;fillColor=none;align=left;verticalAlign=middle;spacingTop=-1;spacingLeft=3;spacingRight=3;rotatable=0;labelPosition=right;points=[];portConstraint=eastwest;" parent="rICSejMsTbXTkALGGHpn-19" vertex="1">
          <mxGeometry y="52" width="240" height="8" as="geometry" />
        </mxCell>
        <mxCell id="rICSejMsTbXTkALGGHpn-22" value="+ getQtdHorasMonitoria(): Int&#xa;+ setQtdHorasMonitoria(qtdHoras: Int): void" style="text;strokeColor=none;fillColor=none;align=left;verticalAlign=top;spacingLeft=4;spacingRight=4;overflow=hidden;rotatable=0;points=[[0,0.5],[1,0.5]];portConstraint=eastwest;fontSize=11;" parent="rICSejMsTbXTkALGGHpn-19" vertex="1">
          <mxGeometry y="60" width="240" height="50" as="geometry" />
        </mxCell>
        <mxCell id="rICSejMsTbXTkALGGHpn-51" value="" style="endArrow=none;html=1;edgeStyle=orthogonalEdgeStyle;" parent="1" source="rICSejMsTbXTkALGGHpn-17" target="rICSejMsTbXTkALGGHpn-28" edge="1">
          <mxGeometry relative="1" as="geometry">
            <mxPoint x="-460" y="230" as="sourcePoint" />
            <mxPoint x="-300" y="230" as="targetPoint" />
            <Array as="points">
              <mxPoint x="-418" y="240" />
            </Array>
          </mxGeometry>
        </mxCell>
        <mxCell id="rICSejMsTbXTkALGGHpn-52" value="parent" style="resizable=0;html=1;align=left;verticalAlign=bottom;labelBackgroundColor=#ffffff;fontSize=10;" parent="rICSejMsTbXTkALGGHpn-51" connectable="0" vertex="1">
          <mxGeometry x="-1" relative="1" as="geometry">
            <mxPoint x="-50" y="-10.03" as="offset" />
          </mxGeometry>
        </mxCell>
        <mxCell id="rICSejMsTbXTkALGGHpn-53" value="child" style="resizable=0;html=1;align=right;verticalAlign=bottom;labelBackgroundColor=#ffffff;fontSize=10;" parent="rICSejMsTbXTkALGGHpn-51" connectable="0" vertex="1">
          <mxGeometry x="1" relative="1" as="geometry">
            <mxPoint x="-11.5" as="offset" />
          </mxGeometry>
        </mxCell>
        <mxCell id="rICSejMsTbXTkALGGHpn-54" value="" style="endArrow=none;html=1;edgeStyle=orthogonalEdgeStyle;entryX=0.999;entryY=0.084;entryDx=0;entryDy=0;entryPerimeter=0;exitX=-0.006;exitY=0.039;exitDx=0;exitDy=0;exitPerimeter=0;" parent="1" source="rICSejMsTbXTkALGGHpn-14" target="rICSejMsTbXTkALGGHpn-22" edge="1">
          <mxGeometry relative="1" as="geometry">
            <mxPoint x="-250" y="120" as="sourcePoint" />
            <mxPoint x="-399.93000000000023" y="120.00000000000006" as="targetPoint" />
            <Array as="points">
              <mxPoint x="-410" y="129" />
            </Array>
          </mxGeometry>
        </mxCell>
        <mxCell id="rICSejMsTbXTkALGGHpn-55" value="parent" style="resizable=0;html=1;align=left;verticalAlign=bottom;labelBackgroundColor=#ffffff;fontSize=10;" parent="rICSejMsTbXTkALGGHpn-54" connectable="0" vertex="1">
          <mxGeometry x="-1" relative="1" as="geometry">
            <mxPoint x="-38.32" y="0.6400000000000006" as="offset" />
          </mxGeometry>
        </mxCell>
        <mxCell id="rICSejMsTbXTkALGGHpn-56" value="child" style="resizable=0;html=1;align=right;verticalAlign=bottom;labelBackgroundColor=#ffffff;fontSize=10;" parent="rICSejMsTbXTkALGGHpn-54" connectable="0" vertex="1">
          <mxGeometry x="1" relative="1" as="geometry">
            <mxPoint x="29.979999999999997" y="6.079999999999998" as="offset" />
          </mxGeometry>
        </mxCell>
        <mxCell id="rICSejMsTbXTkALGGHpn-61" value="1" style="endArrow=open;html=1;endSize=12;startArrow=diamondThin;startSize=14;startFill=0;edgeStyle=orthogonalEdgeStyle;align=left;verticalAlign=bottom;entryX=1;entryY=0.5;entryDx=0;entryDy=0;exitX=0.86;exitY=-0.007;exitDx=0;exitDy=0;exitPerimeter=0;" parent="1" source="rICSejMsTbXTkALGGHpn-57" target="rICSejMsTbXTkALGGHpn-4" edge="1">
          <mxGeometry x="0.8421" y="91" relative="1" as="geometry">
            <mxPoint x="550" y="250" as="sourcePoint" />
            <mxPoint x="670" y="250" as="targetPoint" />
            <mxPoint as="offset" />
          </mxGeometry>
        </mxCell>
        <mxCell id="rICSejMsTbXTkALGGHpn-62" value="1" style="endArrow=open;html=1;endSize=12;startArrow=diamondThin;startSize=14;startFill=0;edgeStyle=orthogonalEdgeStyle;align=left;verticalAlign=bottom;exitX=1.005;exitY=0.047;exitDx=0;exitDy=0;exitPerimeter=0;" parent="1" source="rICSejMsTbXTkALGGHpn-6" edge="1">
          <mxGeometry x="-0.0071" y="66" relative="1" as="geometry">
            <mxPoint x="410" y="390" as="sourcePoint" />
            <mxPoint x="510" y="260" as="targetPoint" />
            <mxPoint x="-65" y="56" as="offset" />
            <Array as="points" />
          </mxGeometry>
        </mxCell>
        <mxCell id="rICSejMsTbXTkALGGHpn-57" value="Matrícula" style="swimlane;fontStyle=0;childLayout=stackLayout;horizontal=1;startSize=26;fillColor=none;horizontalStack=0;resizeParent=1;resizeParentMax=0;resizeLast=0;collapsible=1;marginBottom=0;" parent="1" vertex="1">
          <mxGeometry x="510" y="256" width="140" height="104" as="geometry" />
        </mxCell>
        <mxCell id="rICSejMsTbXTkALGGHpn-58" value="- Aluno: Aluno&#xa;" style="text;strokeColor=none;fillColor=none;align=left;verticalAlign=top;spacingLeft=4;spacingRight=4;overflow=hidden;rotatable=0;points=[[0,0.5],[1,0.5]];portConstraint=eastwest;" parent="rICSejMsTbXTkALGGHpn-57" vertex="1">
          <mxGeometry y="26" width="140" height="26" as="geometry" />
        </mxCell>
        <mxCell id="rICSejMsTbXTkALGGHpn-59" value="- Curso: Curso&#xa;" style="text;strokeColor=none;fillColor=none;align=left;verticalAlign=top;spacingLeft=4;spacingRight=4;overflow=hidden;rotatable=0;points=[[0,0.5],[1,0.5]];portConstraint=eastwest;" parent="rICSejMsTbXTkALGGHpn-57" vertex="1">
          <mxGeometry y="52" width="140" height="26" as="geometry" />
        </mxCell>
        <mxCell id="rICSejMsTbXTkALGGHpn-60" value="- DataMatricula: Date" style="text;strokeColor=none;fillColor=none;align=left;verticalAlign=top;spacingLeft=4;spacingRight=4;overflow=hidden;rotatable=0;points=[[0,0.5],[1,0.5]];portConstraint=eastwest;" parent="rICSejMsTbXTkALGGHpn-57" vertex="1">
          <mxGeometry y="78" width="140" height="26" as="geometry" />
        </mxCell>
        <mxCell id="rICSejMsTbXTkALGGHpn-63" value="&lt;span style=&quot;color: rgba(0 , 0 , 0 , 0) ; font-family: monospace ; font-size: 0px&quot;&gt;%3CmxGraphModel%3E%3Croot%3E%3CmxCell%20id%3D%220%22%2F%3E%3CmxCell%20id%3D%221%22%20parent%3D%220%22%2F%3E%3CmxCell%20id%3D%222%22%20value%3D%22Curso%22%20style%3D%22swimlane%3BfontStyle%3D1%3Balign%3Dcenter%3BverticalAlign%3Dtop%3BchildLayout%3DstackLayout%3Bhorizontal%3D1%3BstartSize%3D26%3BhorizontalStack%3D0%3BresizeParent%3D1%3BresizeParentMax%3D0%3BresizeLast%3D0%3Bcollapsible%3D1%3BmarginBottom%3D0%3B%22%20vertex%3D%221%22%20parent%3D%221%22%3E%3CmxGeometry%20x%3D%2220%22%20y%3D%22230%22%20width%3D%22290%22%20height%3D%22330%22%20as%3D%22geometry%22%2F%3E%3C%2FmxCell%3E%3CmxCell%20id%3D%223%22%20value%3D%22-%20nome%3A%20String%26%2310%3B-%20codigoCurso%3A%20Integer%26%2310%3B-%20professorAdjunto%3A%20ProfessorAdjunto%26%2310%3B-%20professorTitular%3A%20ProfessorTitular%26%2310%3B-%20qtdMaxALunos%3A%20int%26%2310%3B-%20alunos%3A%20List%26lt%3BAluno%26gt%3B%26%2310%3B%26%2310%3B%22%20style%3D%22text%3BstrokeColor%3Dnone%3BfillColor%3Dnone%3Balign%3Dleft%3BverticalAlign%3Dtop%3BspacingLeft%3D4%3BspacingRight%3D4%3Boverflow%3Dhidden%3Brotatable%3D0%3Bpoints%3D%5B%5B0%2C0.5%5D%2C%5B1%2C0.5%5D%5D%3BportConstraint%3Deastwest%3B%22%20vertex%3D%221%22%20parent%3D%222%22%3E%3CmxGeometry%20y%3D%2226%22%20width%3D%22290%22%20height%3D%2294%22%20as%3D%22geometry%22%2F%3E%3C%2FmxCell%3E%3CmxCell%20id%3D%224%22%20value%3D%22%22%20style%3D%22line%3BstrokeWidth%3D1%3BfillColor%3Dnone%3Balign%3Dleft%3BverticalAlign%3Dmiddle%3BspacingTop%3D-1%3BspacingLeft%3D3%3BspacingRight%3D3%3Brotatable%3D0%3BlabelPosition%3Dright%3Bpoints%3D%5B%5D%3BportConstraint%3Deastwest%3B%22%20vertex%3D%221%22%20parent%3D%222%22%3E%3CmxGeometry%20y%3D%22120%22%20width%3D%22290%22%20height%3D%228%22%20as%3D%22geometry%22%2F%3E%3C%2FmxCell%3E%3CmxCell%20id%3D%225%22%20value%3D%22%2B%20getNome()%3AString%26%2310%3B%2B%20setNome(String)%3A%20void%26%2310%3B%2B%20getProfessorAdjunto()%3AString%26%2310%3B%2B%20setProfessorAdjunto(ProfessorAdjunto)%3A%20void%26%2310%3B%2B%20getProfessorTitular()%3A%20String%26%2310%3B%2B%20setProfessorTiitular(ProfessorTitular)%3A%20void%26%2310%3B%2B%20getCodigoCurso()%3A%20Int%C2%A0%26%2310%3B%2B%20setCodigoCurso(Int)%3A%20Int%26%2310%3B%2B%20getQtdMaxAluno()%3A%20Int%26%2310%3B%2B%20setQtdMaxAluno(Int)%3A%20void%26%2310%3B%2B%20verificarCodigoCurso(int%2C%20int%20)%3A%20Boolean%26%2310%3B%2B%20adicionarAluno(int)%3A%20void%26%2310%3B%2B%20excluirAluno(int)%3A%20void%26%2310%3B%22%20style%3D%22text%3BstrokeColor%3Dnone%3BfillColor%3Dnone%3Balign%3Dleft%3BverticalAlign%3Dtop%3BspacingLeft%3D4%3BspacingRight%3D4%3Boverflow%3Dhidden%3Brotatable%3D0%3Bpoints%3D%5B%5B0%2C0.5%5D%2C%5B1%2C0.5%5D%5D%3BportConstraint%3Deastwest%3B%22%20vertex%3D%221%22%20parent%3D%222%22%3E%3CmxGeometry%20y%3D%22128%22%20width%3D%22290%22%20height%3D%22202%22%20as%3D%22geometry%22%2F%3E%3C%2FmxCell%3E%3C%2Froot%3E%3C%2FmxGraphModel%3E&lt;/span&gt;" style="text;html=1;align=center;verticalAlign=middle;resizable=0;points=[];autosize=1;" parent="1" vertex="1">
          <mxGeometry x="500" y="534" width="20" height="20" as="geometry" />
        </mxCell>
        <mxCell id="rICSejMsTbXTkALGGHpn-64" value="DigitalHouseManager" style="swimlane;fontStyle=1;align=center;verticalAlign=top;childLayout=stackLayout;horizontal=1;startSize=26;horizontalStack=0;resizeParent=1;resizeParentMax=0;resizeLast=0;collapsible=1;marginBottom=0;" parent="1" vertex="1">
          <mxGeometry x="20" y="610" width="510" height="230" as="geometry" />
        </mxCell>
        <mxCell id="rICSejMsTbXTkALGGHpn-65" value="- alunos: List&lt;Alunos&gt;&#xa;- professores: List&lt;Professores&gt;&#xa;- cursos: List&lt;Curso&gt;&#xa;- matriculas: List&lt;Matricula&gt;&#xa;" style="text;strokeColor=none;fillColor=none;align=left;verticalAlign=top;spacingLeft=4;spacingRight=4;overflow=hidden;rotatable=0;points=[[0,0.5],[1,0.5]];portConstraint=eastwest;" parent="rICSejMsTbXTkALGGHpn-64" vertex="1">
          <mxGeometry y="26" width="510" height="74" as="geometry" />
        </mxCell>
        <mxCell id="rICSejMsTbXTkALGGHpn-66" value="" style="line;strokeWidth=1;fillColor=none;align=left;verticalAlign=middle;spacingTop=-1;spacingLeft=3;spacingRight=3;rotatable=0;labelPosition=right;points=[];portConstraint=eastwest;" parent="rICSejMsTbXTkALGGHpn-64" vertex="1">
          <mxGeometry y="100" width="510" height="8" as="geometry" />
        </mxCell>
        <mxCell id="rICSejMsTbXTkALGGHpn-67" value="+ registrarCurso(nome: String, codigoCurso: Integer, qtdMax: Integer): void&#xa;+ excluirCurso(codigoCurso: Integer): void&#xa;+ registrarProfessorAdjunto(nome: String, sobrenome: String, codigoProfessor: Int, qtdHoras: Int): void&#xa;+ registrarProfessorTitular(nome: String, sobrenome: String, codigoProfessor: Int, especialidade: String):void&#xa;+ excluirProfessor(codigoProfessor: Integer): void&#xa;+ matricularAluno( nome: String, sobrenome: String, codigoAluno: Integer): void&#xa;+ matricularAluno( codigoAluno: Int, codigoCurso: Int): void&#xa;+ alocarProfessores(codigoCurso: Int, codigoProfessorTitular: Int, codigoProfessorAuxiliar: Int)" style="text;strokeColor=none;fillColor=none;align=left;verticalAlign=top;spacingLeft=4;spacingRight=4;overflow=hidden;rotatable=0;points=[[0,0.5],[1,0.5]];portConstraint=eastwest;fontSize=10;" parent="rICSejMsTbXTkALGGHpn-64" vertex="1">
          <mxGeometry y="108" width="510" height="122" as="geometry" />
        </mxCell>
        <mxCell id="rICSejMsTbXTkALGGHpn-68" value="1" style="endArrow=open;html=1;endSize=12;startArrow=diamondThin;startSize=14;startFill=0;edgeStyle=orthogonalEdgeStyle;align=left;verticalAlign=bottom;fontSize=10;" parent="1" source="rICSejMsTbXTkALGGHpn-64" target="rICSejMsTbXTkALGGHpn-8" edge="1">
          <mxGeometry x="0.7906" y="151" relative="1" as="geometry">
            <mxPoint x="300" y="590" as="sourcePoint" />
            <mxPoint x="380" y="440" as="targetPoint" />
            <Array as="points">
              <mxPoint x="380" y="459" />
            </Array>
            <mxPoint as="offset" />
          </mxGeometry>
        </mxCell>
        <mxCell id="rICSejMsTbXTkALGGHpn-69" value="1" style="endArrow=open;html=1;endSize=12;startArrow=diamondThin;startSize=14;startFill=0;edgeStyle=orthogonalEdgeStyle;align=left;verticalAlign=bottom;fontSize=10;entryX=0;entryY=0.5;entryDx=0;entryDy=0;exitX=0.913;exitY=-0.005;exitDx=0;exitDy=0;exitPerimeter=0;" parent="1" source="rICSejMsTbXTkALGGHpn-64" target="rICSejMsTbXTkALGGHpn-60" edge="1">
          <mxGeometry x="0.5422" y="-261" relative="1" as="geometry">
            <mxPoint x="560" y="580" as="sourcePoint" />
            <mxPoint x="556.8400000000001" y="529.9499999999999" as="targetPoint" />
            <mxPoint as="offset" />
          </mxGeometry>
        </mxCell>
        <mxCell id="rICSejMsTbXTkALGGHpn-71" value="1" style="endArrow=open;html=1;endSize=12;startArrow=diamondThin;startSize=14;startFill=0;edgeStyle=orthogonalEdgeStyle;align=left;verticalAlign=bottom;fontSize=10;entryX=1;entryY=0.5;entryDx=0;entryDy=0;" parent="1" source="rICSejMsTbXTkALGGHpn-65" target="rICSejMsTbXTkALGGHpn-2" edge="1">
          <mxGeometry x="-1" y="3" relative="1" as="geometry">
            <mxPoint x="810" y="690" as="sourcePoint" />
            <mxPoint x="690" y="70" as="targetPoint" />
            <Array as="points">
              <mxPoint x="770" y="695" />
              <mxPoint x="770" y="93" />
            </Array>
          </mxGeometry>
        </mxCell>
        <mxCell id="rICSejMsTbXTkALGGHpn-72" value="1" style="endArrow=open;html=1;endSize=12;startArrow=diamondThin;startSize=14;startFill=0;edgeStyle=orthogonalEdgeStyle;align=left;verticalAlign=bottom;exitX=0;exitY=0.73;exitDx=0;exitDy=0;exitPerimeter=0;entryX=0.801;entryY=1.032;entryDx=0;entryDy=0;entryPerimeter=0;" parent="1" source="rICSejMsTbXTkALGGHpn-65" target="rICSejMsTbXTkALGGHpn-31" edge="1">
          <mxGeometry x="0.0645" y="-300" relative="1" as="geometry">
            <mxPoint x="-20" y="700" as="sourcePoint" />
            <mxPoint x="-440" y="520" as="targetPoint" />
            <Array as="points">
              <mxPoint x="-440" y="690" />
            </Array>
            <mxPoint as="offset" />
          </mxGeometry>
        </mxCell>
        <mxCell id="rICSejMsTbXTkALGGHpn-73" value="1" style="endArrow=open;html=1;endSize=12;startArrow=diamondThin;startSize=14;startFill=0;edgeStyle=orthogonalEdgeStyle;align=left;verticalAlign=bottom;" parent="1" source="rICSejMsTbXTkALGGHpn-67" target="rICSejMsTbXTkALGGHpn-22" edge="1">
          <mxGeometry x="0.0183" y="-780" relative="1" as="geometry">
            <mxPoint x="-780" y="750" as="sourcePoint" />
            <mxPoint x="-730" y="140" as="targetPoint" />
            <Array as="points">
              <mxPoint x="-780" y="799" />
              <mxPoint x="-780" y="140" />
            </Array>
            <mxPoint as="offset" />
          </mxGeometry>
        </mxCell>
      </root>
    </mxGraphModel>
  </diagram>
</mxfile>
